<svg xmlns="http://www.w3.org/2000/svg" width="256" height="256" viewBox="0 0 100 100"><rect width="100" height="100" rx="0" fill="#f2f0e4"></rect><path d="M26.87 19.94L26.87 18.14Q28.76 18.23 31.82 18.32Q34.88 18.41 37.85 18.41L37.85 18.41Q42.08 18.41 45.95 18.32Q49.82 18.23 51.44 18.23L51.44 18.23Q62.33 18.23 67.73 23.18Q73.13 28.13 73.13 35.96L73.13 35.96Q73.13 39.20 72.05 42.76Q70.97 46.31 68.31 49.33Q65.66 52.34 61.07 54.23Q56.48 56.12 49.46 56.12L49.46 56.12L40.82 56.12L40.82 54.32L48.56 54.32Q54.95 54.32 58.33 51.89Q61.70 49.46 62.91 45.50Q64.13 41.54 64.13 36.95L64.13 36.95Q64.13 28.40 60.75 24.17Q57.38 19.94 49.19 19.94L49.19 19.94Q45.05 19.94 43.79 21.47Q42.53 23 42.53 27.68L42.53 27.68L42.53 72.32Q42.53 75.56 43.20 77.18Q43.88 78.80 45.86 79.34Q47.84 79.88 51.62 80.06L51.62 80.06L51.62 81.86Q49.28 81.68 45.68 81.64Q42.08 81.59 38.39 81.59L38.39 81.59Q34.88 81.59 31.82 81.64Q28.76 81.68 26.87 81.86L26.87 81.86L26.87 80.06Q29.93 79.88 31.50 79.34Q33.08 78.80 33.62 77.18Q34.16 75.56 34.16 72.32L34.16 72.32L34.16 27.68Q34.16 24.35 33.62 22.77Q33.08 21.20 31.50 20.62Q29.93 20.03 26.87 19.94L26.87 19.94Z" fill="#fff"></path></svg>